<svg width="48" height="40" viewBox="0 0 48 40" fill="none" xmlns="http://www.w3.org/2000/svg">
<g filter="url(#filter0_d_16_1461)">
<path d="M24.225 21.4188C26.1085 19.8343 27.4592 17.7089 28.094 15.3308C28.7288 12.9528 28.617 10.437 27.7737 8.1246C26.9304 5.81222 25.3965 3.81508 23.3798 2.40394C21.3631 0.992806 18.9613 0.235931 16.5 0.235931C14.0386 0.235931 11.6368 0.992806 9.62016 2.40394C7.60349 3.81508 6.06954 5.81222 5.22625 8.1246C4.38297 10.437 4.27115 12.9528 4.90595 15.3308C5.54075 17.7089 6.89147 19.8343 8.77498 21.4188C5.72031 22.8011 3.09171 24.9765 1.16248 27.7188C0.82008 28.2063 0.685035 28.8098 0.78697 29.3968C0.888905 29.9838 1.2195 30.5064 1.70623 30.85C2.08358 31.1197 2.53616 31.264 2.99998 31.2625C3.36075 31.2635 3.7164 31.1771 4.03643 31.0105C4.35646 30.844 4.63133 30.6023 4.83748 30.3063C6.15208 28.4339 7.89816 26.9056 9.92811 25.8505C11.9581 24.7954 14.2122 24.2446 16.5 24.2446C18.7878 24.2446 21.0419 24.7954 23.0719 25.8505C25.1018 26.9056 26.8479 28.4339 28.1625 30.3063C28.3255 30.5638 28.5391 30.7856 28.7904 30.9581C29.0417 31.1307 29.3254 31.2503 29.6243 31.3099C29.9233 31.3694 30.2312 31.3676 30.5294 31.3045C30.8276 31.2414 31.1099 31.1184 31.3592 30.9429C31.6084 30.7675 31.8194 30.5432 31.9793 30.2837C32.1392 30.0242 32.2448 29.7349 32.2895 29.4334C32.3342 29.1319 32.3172 28.8244 32.2395 28.5297C32.1618 28.2349 32.025 27.959 31.8375 27.7188C29.9083 24.9765 27.2797 22.8011 24.225 21.4188ZM8.99998 12.25C8.99998 10.7667 9.43985 9.3166 10.264 8.08324C11.0881 6.84987 12.2594 5.88857 13.6299 5.32091C15.0003 4.75326 16.5083 4.60473 17.9632 4.89412C19.418 5.18351 20.7544 5.89782 21.8033 6.94671C22.8522 7.9956 23.5665 9.33198 23.8559 10.7868C24.1453 12.2417 23.9967 13.7497 23.4291 15.1201C22.8614 16.4906 21.9001 17.6619 20.6668 18.486C19.4334 19.3101 17.9833 19.75 16.5 19.75C14.5109 19.75 12.6032 18.9598 11.1967 17.5533C9.79016 16.1468 8.99998 14.2391 8.99998 12.25ZM46.575 30.85C46.1976 31.1197 45.7451 31.264 45.2812 31.2625C44.921 31.2604 44.5665 31.1726 44.247 31.0063C43.9275 30.8401 43.6521 30.6001 43.4437 30.3063C42.1263 28.4372 40.3795 26.9116 38.3501 25.8577C36.3207 24.8039 34.068 24.2525 31.7812 24.25C31.1845 24.25 30.6122 24.013 30.1902 23.591C29.7683 23.169 29.5312 22.5967 29.5312 22C29.5312 21.4033 29.7683 20.831 30.1902 20.409C30.6122 19.9871 31.1845 19.75 31.7812 19.75C33.7704 19.75 35.678 18.9598 37.0845 17.5533C38.4911 16.1468 39.2812 14.2391 39.2812 12.25C39.2812 10.2609 38.4911 8.35323 37.0845 6.94671C35.678 5.54019 33.7704 4.75001 31.7812 4.75001C31.0964 4.74872 30.4148 4.84339 29.7562 5.03126C29.4703 5.11656 29.1702 5.14412 28.8734 5.11234C28.5767 5.08055 28.2893 4.99006 28.0279 4.84612C27.7664 4.70218 27.5363 4.50767 27.3507 4.27392C27.1652 4.04018 27.028 3.77186 26.9472 3.48459C26.8664 3.19732 26.8435 2.89684 26.8799 2.60064C26.9163 2.30444 27.0113 2.01845 27.1593 1.75931C27.3073 1.50016 27.5053 1.27305 27.742 1.09119C27.9786 0.90933 28.249 0.776357 28.5375 0.700012C29.5925 0.399654 30.6843 0.248189 31.7812 0.250012C34.2442 0.242859 36.6496 0.994952 38.6698 2.40389C40.69 3.81283 42.2269 5.81014 43.0713 8.1239C43.9156 10.4377 44.0264 12.9554 43.3884 15.3344C42.7505 17.7133 41.3949 19.8379 39.5062 21.4188C42.5609 22.8011 45.1895 24.9765 47.1187 27.7188C47.2907 27.9593 47.4132 28.2317 47.479 28.52C47.5447 28.8083 47.5526 29.1068 47.502 29.3981C47.4514 29.6895 47.3434 29.9679 47.1842 30.2171C47.0251 30.4664 46.818 30.6815 46.575 30.85Z" fill="#4CAF4F"/>
<path d="M16.4999 0.735931C18.8587 0.735931 21.161 1.46172 23.0936 2.81406C25.0259 4.16628 26.4955 6.07988 27.3036 8.2955C28.1117 10.5115 28.2195 12.9228 27.6112 15.2018C27.0029 17.4806 25.7081 19.5173 23.9032 21.0357L23.2958 21.5475L24.0184 21.8746C26.9917 23.2201 29.5508 25.3372 31.4286 28.0064L31.4354 28.0162L31.4432 28.026C31.589 28.2128 31.6953 28.4277 31.7557 28.6568C31.8162 28.8861 31.8296 29.1255 31.7948 29.36C31.76 29.5944 31.6779 29.8193 31.5536 30.0211C31.4292 30.2229 31.265 30.3973 31.0712 30.5338C30.8773 30.6703 30.6576 30.766 30.4257 30.815C30.1938 30.864 29.954 30.8662 29.7216 30.8199C29.4892 30.7736 29.2685 30.6796 29.0731 30.5455C28.8778 30.4114 28.7115 30.2389 28.5848 30.0387L28.579 30.0289L28.5721 30.0191L28.3114 29.6598C26.984 27.8851 25.2724 26.4307 23.3026 25.4068C21.2014 24.3147 18.8679 23.7447 16.4999 23.7447C14.1319 23.7447 11.7983 24.3147 9.69714 25.4068C7.5961 26.4989 5.78925 28.0812 4.42859 30.0191L4.42761 30.0201C4.26766 30.2498 4.05386 30.4378 3.80554 30.567C3.55736 30.6961 3.2816 30.763 3.00183 30.7623H2.99792C2.63907 30.7634 2.28891 30.6516 1.99695 30.443L1.995 30.442L1.85828 30.3346C1.55451 30.0715 1.34853 29.7105 1.27917 29.3111C1.19996 28.8546 1.30489 28.3846 1.57117 28.0055C3.44896 25.3365 6.00823 23.22 8.98132 21.8746L9.70398 21.5475L9.09656 21.0357C7.29172 19.5173 5.99686 17.4806 5.38855 15.2018C4.78027 12.9228 4.88805 10.5115 5.69617 8.2955C6.50434 6.07965 7.9746 4.16631 9.9071 2.81406C11.8397 1.46174 14.1411 0.735953 16.4999 0.735931ZM28.6649 1.1832H28.6659L28.6747 1.18124C29.6848 0.893697 30.7299 0.747882 31.7802 0.749603H31.7831C34.1431 0.742831 36.4479 1.46401 38.3837 2.81406C40.3196 4.1642 41.7923 6.0783 42.6014 8.2955C43.4105 10.5126 43.5164 12.9251 42.9052 15.2047C42.2939 17.4844 40.9953 19.5208 39.1854 21.0357L38.5751 21.5465L39.2997 21.8746C42.273 23.2201 44.832 25.3372 46.7098 28.0064L46.7118 28.0094C46.8452 28.196 46.94 28.4077 46.9911 28.6314C47.0421 28.8551 47.0489 29.0871 47.0096 29.3131C46.9704 29.539 46.886 29.7546 46.7626 29.9478C46.6391 30.1412 46.4785 30.3083 46.2899 30.4391L46.2841 30.443C45.992 30.6517 45.642 30.7624 45.2831 30.7613C45.0026 30.7595 44.7262 30.6926 44.4774 30.5631C44.2906 30.4658 44.1238 30.3356 43.9833 30.1803L43.8514 30.0172C42.4881 28.0832 40.6809 26.5042 38.5809 25.4137C36.4806 24.323 34.1487 23.7522 31.7821 23.7496H31.7811C31.3171 23.7496 30.872 23.5659 30.5438 23.2379C30.2156 22.9097 30.0311 22.4637 30.0311 21.9996C30.0312 21.5356 30.2157 21.0904 30.5438 20.7623C30.872 20.4342 31.3171 20.2496 31.7811 20.2496C33.9029 20.2496 35.9381 19.4071 37.4384 17.9068C38.9386 16.4066 39.7811 14.3713 39.7811 12.2496C39.781 10.1281 38.9384 8.09353 37.4384 6.59335C35.9381 5.09306 33.9029 4.2496 31.7811 4.2496C31.05 4.24832 30.3221 4.3498 29.619 4.55038L29.6132 4.55234C29.3908 4.61864 29.1574 4.63955 28.9266 4.61484C28.6959 4.59011 28.4727 4.51969 28.2694 4.40781C28.0661 4.29587 27.8864 4.14524 27.7421 3.96347C27.5978 3.78169 27.4915 3.57262 27.4286 3.34921C27.3657 3.12581 27.3476 2.89205 27.3759 2.66171C27.4042 2.43135 27.4785 2.20896 27.5936 2.00742C27.7087 1.80588 27.8627 1.62932 28.0468 1.48788C28.2307 1.34652 28.4407 1.24259 28.6649 1.1832ZM18.0604 4.4039C16.5086 4.09528 14.9001 4.25351 13.4384 4.85898C11.9767 5.46445 10.7275 6.48984 9.84851 7.80527C8.96953 9.12075 8.49996 10.6675 8.49988 12.2496C8.49988 14.3712 9.34252 16.4066 10.8427 17.9068C12.3429 19.4071 14.3782 20.2496 16.4999 20.2496C18.082 20.2496 19.6287 19.7809 20.9442 18.9019C22.2598 18.0229 23.286 16.7729 23.8915 15.3111C24.4968 13.8494 24.6552 12.2407 24.3466 10.6891C24.0379 9.13738 23.2758 7.7121 22.1571 6.59335C21.0383 5.47453 19.6123 4.71258 18.0604 4.4039Z" stroke="#4CAF4F"/>
</g>
<defs>
<filter id="filter0_d_16_1461" x="-3.24622" y="0.235931" width="54.7811" height="39.1173" filterUnits="userSpaceOnUse" color-interpolation-filters="sRGB">
<feFlood flood-opacity="0" result="BackgroundImageFix"/>
<feColorMatrix in="SourceAlpha" type="matrix" values="0 0 0 0 0 0 0 0 0 0 0 0 0 0 0 0 0 0 127 0" result="hardAlpha"/>
<feOffset dy="4"/>
<feGaussianBlur stdDeviation="2"/>
<feComposite in2="hardAlpha" operator="out"/>
<feColorMatrix type="matrix" values="0 0 0 0 0 0 0 0 0 0 0 0 0 0 0 0 0 0 0.25 0"/>
<feBlend mode="normal" in2="BackgroundImageFix" result="effect1_dropShadow_16_1461"/>
<feBlend mode="normal" in="SourceGraphic" in2="effect1_dropShadow_16_1461" result="shape"/>
</filter>
</defs>
</svg>
